<?xml version="1.0" encoding="UTF-8"?>
<svg width="20px" height="20px" viewBox="0 0 20 20" version="1.1" xmlns="http://www.w3.org/2000/svg" xmlns:xlink="http://www.w3.org/1999/xlink">
    <!-- Generator: Sketch 51.1 (57501) - http://www.bohemiancoding.com/sketch -->
    <title>block-icon</title>
    <desc>Created with Sketch.</desc>
    <defs>
        <path d="M4.40274725,17.9071429 L9.15989011,13.15 L14.6027473,18.5928571 C13.267033,19.4785714 11.6598901,20 9.93846154,20 C7.82417582,20 5.88131868,19.2071429 4.40274725,17.9071429 Z M13.9741758,11.9428571 C13.9741758,11.9428571 15.8884615,9.80714286 17.2027473,7.4 C17.9241758,8.63571429 18.3313187,10.0714286 18.3313187,11.6 C18.3313187,13.5428571 17.6741758,15.3357143 16.5598901,16.7571429 L11.0527473,11.25 L12.3741758,9.94285714 C13.2456044,11.1357143 13.9741758,11.9428571 13.9741758,11.9428571 Z M9.4456044,3.52142857 C9.4456044,4.77857143 10.0813187,6.27142857 10.8741758,7.63571429 L2.68131868,15.8285714 C1.9456044,14.5928571 1.53846154,13.1357143 1.53846154,11.6 C1.53846154,7.12142857 5.0456044,3.46428571 9.45274725,3.2 C9.45274725,3.31428571 9.4456044,3.41428571 9.4456044,3.52142857 Z M5.66703297,9.72142857 C6.33846154,9.95 7.18131868,9.78571429 7.60274725,9.22142857 C7.93846154,8.81428571 8.00274725,8.27142857 7.97417582,7.76428571 C7.3956044,7.76428571 6.81703297,7.76428571 6.23846154,7.76428571 C6.23846154,7.97142857 6.23846154,8.17142857 6.23846154,8.37857143 C6.57417582,8.38571429 6.93131868,8.37857143 7.27417582,8.38571429 C7.18846154,8.69285714 6.98131868,8.96428571 6.68131868,9.07857143 C6.2456044,9.27142857 5.72417582,9.12857143 5.40274725,8.78571429 C5.30274725,8.67857143 5.20989011,8.54285714 5.17417582,8.38571429 C4.9456044,7.8 5.30989011,7.08571429 5.90989011,6.91428571 C6.28131868,6.77857143 6.66703297,6.92142857 6.98846154,7.12142857 C7.15989011,6.97142857 7.31703297,6.80714286 7.45989011,6.64285714 C7.10274725,6.34285714 6.6456044,6.16428571 6.15989011,6.2 C5.28131868,6.20714286 4.4956044,6.96428571 4.43846154,7.83571429 C4.43846154,7.88571429 4.43846154,7.95 4.43846154,8.00714286 C4.43846154,8.1 4.43846154,8.19285714 4.45274725,8.29285714 C4.55989011,8.93571429 5.0456044,9.51428571 5.66703297,9.72142857 Z M13.9741758,-3.19744231e-14 C15.9456044,-3.19744231e-14 17.5098901,1.55714286 17.5027473,3.52857143 C17.5027473,6.13571429 13.9741758,10.0785714 13.9741758,10.0785714 C13.9741758,10.0785714 10.4456044,6.15 10.4456044,3.52857143 C10.4456044,1.55714286 12.0027473,-3.19744231e-14 13.9741758,-3.19744231e-14 Z M13.9741758,4.79285714 C14.6813187,4.79285714 15.2384615,4.23571429 15.2384615,3.52857143 C15.2384615,2.81428571 14.6813187,2.26428571 13.9741758,2.26428571 C13.2598901,2.26428571 12.7098901,2.82142857 12.7098901,3.52857143 C12.7098901,4.24285714 13.267033,4.79285714 13.9741758,4.79285714 Z" id="path-1"></path>
    </defs>
    <g id="block-icon" stroke="none" stroke-width="1" fill="none" fill-rule="evenodd">
        <mask id="mask-2" fill="white">
            <use xlink:href="#path-1"></use>
        </mask>
        <use id="Combined-Shape" fill="#111111" fill-rule="nonzero" xlink:href="#path-1"></use>
    </g>
</svg>